<?xml version="1.0" encoding="utf-8"?>
<!-- Generator: Adobe Illustrator 26.5.0, SVG Export Plug-In . SVG Version: 6.00 Build 0)  -->
<svg version="1.1" id="Layer_1" xmlns="http://www.w3.org/2000/svg" xmlns:xlink="http://www.w3.org/1999/xlink" x="0px" y="0px"
	 viewBox="0 0 512 512" style="enable-background:new 0 0 512 512;" xml:space="preserve">
<style type="text/css">
	.st0{fill:#78C5E1;}
	.st1{fill:#F46E5D;}
</style>
<g id="XMLID_1_">
	<path id="XMLID_2_" class="st0" d="M159.07,253.17v21.88c0,2.67-2.1,4.07-4.21,4.07c-1.82,0-3.51-1.54-3.51-4.07v-33.24
		c0-3.09,2.67-4.07,3.51-4.07c1.68,0,2.67,0.98,3.79,2.1l13.05,17.53l13.47-18.24c1.96-2.38,6.73-1.54,6.73,2.67v33.24
		c0,2.67-1.68,4.07-3.51,4.07c-2.1,0-3.79-1.54-3.79-4.07v-21.88l-9.82,12.34c-2.1,2.67-4.77,2.67-6.73,0L159.07,253.17z
		 M225.14,279.69c-10.94,0.42-22.3-6.73-22.3-21.32s11.36-21.6,22.3-21.6c10.38,0.56,21.18,7.71,21.18,21.6
		C246.18,272.39,235.38,279.69,225.14,279.69z M224.44,244.48c-6.59,0-13.75,4.63-13.75,14.03c0,9.26,7.15,14.03,13.75,14.03
		c6.73,0,14.03-4.77,14.03-14.03C238.47,249.11,231.17,244.48,224.44,244.48z M265.68,275.34c0,5.19-7.86,5.33-7.86,0.14v-33.53
		c0-2.1,1.54-3.65,3.51-3.65h15.71c15.01,0,18.1,20.06,5.61,25.11l7.86,9.54c3.09,4.49-3.09,8.98-6.59,4.49l-8.98-12.76h-9.26
		V275.34z M265.68,257.8h11.36c7.71,0,8.14-12.34,0-12.34h-11.36V257.8z M302.29,241.81c0-1.96,1.54-4.07,4.07-4.07h13.61
		c7.71,0,14.59,5.19,14.59,15.01c0,9.4-6.87,14.59-14.59,14.59h-9.82v7.86c0,2.67-1.68,4.07-3.79,4.07c-1.96,0-4.07-1.54-4.07-4.07
		V241.81z M310,245.18v14.73h9.82c3.93,0,7.15-3.51,7.15-7.15c0-4.07-3.09-7.57-7.15-7.57H310z M345.21,275.48v-33.53
		c0-2.1,1.54-3.65,4.21-3.65c2.1,0,3.65,1.54,3.65,3.65v12.91h19.22v-12.91c0-2.1,1.82-3.65,4.07-3.65c2.1,0,3.65,1.54,3.65,3.65
		v33.53c0,2.1-1.54,3.65-3.65,3.65s-4.07-1.54-4.07-3.65v-12.91h-19.22v12.91c0,2.1-1.54,3.65-3.65,3.65
		C346.76,279.12,345.21,277.58,345.21,275.48z M396.27,279.12c-2.1,0-3.65-1.54-3.65-3.65v-33.53c0-2.1,1.54-3.65,3.65-3.65h21.18
		c5.47,0,5.33,7.71,0,7.71h-16.97v8.84h14.87c5.19,0,5.19,7.71,0,7.71h-14.87v8.84h17.95c5.33,0,5.75,7.71,0,7.71H396.27
		L396.27,279.12z M461.22,242.23c0-5.19,7.71-5.61,7.71,0v21.32c0,22.02-35.63,22.02-35.63,0v-21.32c0-5.33,7.71-5.61,7.71,0v21.32
		c0,11.64,20.2,12.34,20.2,0V242.23z M480.86,247.14c1.4-11.5,18.66-13.47,26.79-7.29c4.07,3.23-0.28,8.42-3.79,5.75
		c-4.35-2.81-14.31-4.07-15.57,2.1c-1.54,9.68,24.13,4.07,23.71,19.78c-0.42,15.01-22.16,15.29-30.3,8.56
		c-1.96-1.54-1.82-4.21-0.84-5.75c1.54-1.54,3.23-2.1,5.19-0.42c4.91,3.37,17.25,5.75,18.24-2.67
		C503.58,258.65,479.03,263.84,480.86,247.14z"/>
	<path id="XMLID_14_" class="st0" d="M104.36,269.31c-5.75,23.14-26.79,39.56-51.62,39.56c-24.97,0-45.73-17.39-51.34-40.68
		c6.59,0,12.91,0,15.71,0c1.4,0,1.68,0,1.68,0c2.1-0.14,4.91-0.84,6.73-5.19l6.87-18.1l15.29,36.89c1.4,2.95,3.65,2.67,5.05,2.67
		h0.14c2.67,0,3.79-0.98,4.91-2.81l17.25-36.47l5.89,16.41l0.42,0.84c1.26,2.67,2.1,5.47,5.19,5.75c0.7,0.14,8,0,17.95,0
		C104.5,268.18,104.5,268.32,104.36,269.31z"/>
	<path id="XMLID_15_" class="st1" d="M106.05,255.7c0,0.28,0,0.98,0,0.98l0,0H90.2l-9.26-25.95c-0.84-1.96-2.1-4.77-5.75-4.77
		c-2.24,0-4.21,1.82-5.33,4.91l-16.83,39l-16.13-38.72c-1.54-3.51-2.67-5.05-5.89-5.05c-2.1,0-3.79,0.84-5.47,4.91l-9.54,26.23H0
		c0-0.42,0-0.84,0-1.26c0-29.18,23.57-52.74,52.74-52.74C81.92,203.1,106.05,226.52,106.05,255.7z"/>
</g>
</svg>
